<svg width="24" height="24" viewBox="0 0 24 24" fill="none" xmlns="http://www.w3.org/2000/svg">
<path fill-rule="evenodd" clip-rule="evenodd" d="M11.1829 23.4158C11.1829 23.4158 3 16.5242 3 9.74304C3 7.35224 3.94974 5.05936 5.64029 3.36881C7.33084 1.67826 9.62372 0.728516 12.0145 0.728516C14.4053 0.728516 16.6982 1.67826 18.3888 3.36881C20.0793 5.05936 21.0291 7.35224 21.0291 9.74304C21.0291 16.5242 12.8461 23.4158 12.8461 23.4158C12.3909 23.835 11.6415 23.8305 11.1829 23.4158ZM12.0145 13.6869C12.5324 13.6869 13.0453 13.5849 13.5238 13.3867C14.0023 13.1885 14.437 12.898 14.8033 12.5318C15.1695 12.1655 15.46 11.7308 15.6582 11.2523C15.8564 10.7738 15.9584 10.261 15.9584 9.74304C15.9584 9.22513 15.8564 8.71228 15.6582 8.23379C15.46 7.7553 15.1695 7.32053 14.8033 6.95431C14.437 6.58809 14.0023 6.29759 13.5238 6.09939C13.0453 5.9012 12.5324 5.79919 12.0145 5.79919C10.9686 5.79919 9.96542 6.2147 9.2258 6.95431C8.48618 7.69393 8.07067 8.69706 8.07067 9.74304C8.07067 10.789 8.48618 11.7921 9.2258 12.5318C9.96542 13.2714 10.9686 13.6869 12.0145 13.6869Z" fill="#161618"/>
</svg>
