<svg width="24" height="24" viewBox="0 0 24 24" fill="none" xmlns="http://www.w3.org/2000/svg">
<path fill-rule="evenodd" clip-rule="evenodd" d="M11.2914 21.9566C11.2914 21.9566 4.17578 15.9639 4.17578 10.0672C4.17578 7.98828 5.00164 5.99447 6.47169 4.52442C7.94173 3.05438 9.93554 2.22852 12.0145 2.22852C14.0935 2.22852 16.0873 3.05438 17.5573 4.52442C19.0274 5.99447 19.8532 7.98828 19.8532 10.0672C19.8532 15.9639 12.7376 21.9566 12.7376 21.9566C12.3418 22.3211 11.6902 22.3172 11.2914 21.9566ZM12.0145 13.4967C12.4649 13.4967 12.9108 13.408 13.3269 13.2356C13.743 13.0633 14.121 12.8107 14.4395 12.4922C14.7579 12.1738 15.0105 11.7957 15.1829 11.3796C15.3552 10.9635 15.4439 10.5176 15.4439 10.0672C15.4439 9.61687 15.3552 9.17092 15.1829 8.75484C15.0105 8.33877 14.7579 7.96071 14.4395 7.64225C14.121 7.3238 13.743 7.07119 13.3269 6.89885C12.9108 6.7265 12.4649 6.63779 12.0145 6.63779C11.105 6.63779 10.2327 6.99911 9.58952 7.64225C8.94638 8.2854 8.58506 9.15769 8.58506 10.0672C8.58506 10.9768 8.94638 11.8491 9.58952 12.4922C10.2327 13.1354 11.105 13.4967 12.0145 13.4967Z" fill="#161618"/>
</svg>
