<svg width="44" height="44" viewBox="0 0 44 44" fill="none" xmlns="http://www.w3.org/2000/svg">
<g clip-path="url(#clip0_52_3569)">
<path d="M22 44C34.1503 44 44 34.1503 44 22C44 9.84974 34.1503 0 22 0C9.84974 0 0 9.84974 0 22C0 34.1503 9.84974 44 22 44Z" fill="#4C60D8"/>
<g clip-path="url(#clip1_52_3569)">
<path d="M18.1339 14.2079L16.6953 12.5311L17.4649 11.8708C19.9591 9.73253 23.5789 9.73253 26.0731 11.8708L26.8329 12.5213L25.3944 14.1993L24.6346 13.5487C22.9738 12.1249 20.5631 12.1249 18.9023 13.5487L18.1327 14.2091L18.1339 14.2079Z" fill="white"/>
<path d="M16.6936 28.7672L8.7998 22.0002L16.6912 15.2344L18.1285 16.9123L12.1937 22.0002L18.131 27.0905L16.6936 28.7672Z" fill="white"/>
<path d="M21.7694 33.7334C20.2412 33.7334 18.7118 33.1994 17.4647 32.1291L16.6963 31.4699L18.1349 29.792L18.9033 30.4511C20.564 31.875 22.9748 31.875 24.6355 30.4511L25.3929 29.8018L26.8315 31.4798L26.0741 32.1291C24.827 33.1982 23.2988 33.7322 21.7706 33.7322L21.7694 33.7334Z" fill="white"/>
<path d="M26.8348 28.7768L25.3975 27.0989L31.3445 22L25.3999 16.9035L26.8373 15.2256L34.7397 22L26.8348 28.7768Z" fill="white"/>
<path d="M21.7691 26.1734C24.074 26.1734 25.9425 24.3049 25.9425 22C25.9425 19.6951 24.074 17.8267 21.7691 17.8267C19.4642 17.8267 17.5957 19.6951 17.5957 22C17.5957 24.3049 19.4642 26.1734 21.7691 26.1734Z" fill="white"/>
</g>
</g>
<defs>
<clipPath id="clip0_52_3569">
<rect width="44" height="44" fill="white"/>
</clipPath>
<clipPath id="clip1_52_3569">
<rect width="26.4" height="23.4667" fill="white" transform="translate(8.7998 10.2666)"/>
</clipPath>
</defs>
</svg>
