<svg width="24" height="24" viewBox="0 0 24 24" fill="none" xmlns="http://www.w3.org/2000/svg">
<path d="M20.0482 15.6303L17.2203 15.3074C16.8878 15.2683 16.5507 15.3052 16.2345 15.4151C15.9182 15.525 15.631 15.7051 15.3944 15.942L13.3458 17.9906C10.1855 16.3828 7.61659 13.8139 6.00884 10.6536L8.06854 8.59388C8.54728 8.11514 8.78108 7.44713 8.70315 6.76798L8.38028 3.96234C8.31739 3.41912 8.05681 2.91804 7.64821 2.55461C7.2396 2.19117 6.71155 1.99081 6.16471 1.9917H4.23861C2.98052 1.9917 1.93397 3.03825 2.0119 4.29634C2.60198 13.8044 10.2062 21.3974 19.7031 21.9875C20.9612 22.0654 22.0077 21.0189 22.0077 19.7608V17.8347C22.0188 16.7102 21.1727 15.7639 20.0482 15.6303Z" fill="#161618"/>
</svg>
