<svg width="24" height="24" viewBox="0 0 24 24" fill="none" xmlns="http://www.w3.org/2000/svg">
<path d="M18.8432 15.0845L16.4395 14.8101C16.1568 14.7769 15.8703 14.8082 15.6015 14.9016C15.3327 14.9951 15.0886 15.1482 14.8874 15.3495L13.1462 17.0908C10.4598 15.7242 8.27627 13.5407 6.90968 10.8543L8.66043 9.10358C9.06736 8.69665 9.2661 8.12884 9.19985 7.55156L8.92541 5.16675C8.87196 4.70501 8.65046 4.27909 8.30315 3.97017C7.95583 3.66125 7.50699 3.49094 7.04217 3.4917H5.40497C4.33559 3.4917 3.44602 4.38127 3.51227 5.45065C4.01383 13.5325 10.4774 19.9867 18.5498 20.4882C19.6192 20.5545 20.5088 19.6649 20.5088 18.5955V16.9583C20.5182 16.0025 19.799 15.1981 18.8432 15.0845Z" fill="#161618"/>
</svg>
