<svg width="44" height="44" viewBox="0 0 44 44" fill="none" xmlns="http://www.w3.org/2000/svg">
<g clip-path="url(#clip0_52_3568)">
<path d="M22 44C34.1503 44 44 34.1503 44 22C44 9.84974 34.1503 0 22 0C9.84974 0 0 9.84974 0 22C0 34.1503 9.84974 44 22 44Z" fill="#039BE5"/>
<path d="M10.0668 21.5237L31.2785 13.3452C32.263 12.9895 33.1228 13.5854 32.8038 15.074L32.8057 15.0722L29.194 32.0874C28.9263 33.2937 28.2095 33.587 27.2067 33.0187L21.7067 28.9652L19.0538 31.5209C18.7605 31.8142 18.513 32.0617 17.9447 32.0617L18.3352 26.4645L28.5285 17.2557C28.9722 16.8652 28.4295 16.6452 27.8447 17.0339L15.2478 24.9649L9.81749 23.2709C8.63866 22.8969 8.61299 22.092 10.0668 21.5237Z" fill="white"/>
</g>
<defs>
<clipPath id="clip0_52_3568">
<rect width="44" height="44" fill="white"/>
</clipPath>
</defs>
</svg>
